<?xml version="1.0" encoding="UTF-8"?>
<!DOCTYPE svg PUBLIC "-//W3C//DTD SVG 1.1//EN" "http://www.w3.org/Graphics/SVG/1.1/DTD/svg11.dtd">
<svg xmlns="http://www.w3.org/2000/svg" version="1.1" width="1711px" height="1554px"
     style="shape-rendering:geometricPrecision; text-rendering:geometricPrecision; image-rendering:optimizeQuality; fill-rule:evenodd; clip-rule:evenodd">
<g><path style="opacity:1" fill="#fefefe" d="M -0.5,-0.5 C 569.833,-0.5 1140.17,-0.5 1710.5,-0.5C 1710.5,517.5 1710.5,1035.5 1710.5,1553.5C 1140.17,1553.5 569.833,1553.5 -0.5,1553.5C -0.5,1035.5 -0.5,517.5 -0.5,-0.5 Z"/></g>
<g><path style="opacity:1" fill="#6b0911" d="M 525.5,1042.5 C 508.672,1043.33 491.672,1043.83 474.5,1044C 548.499,1044.5 622.499,1044.67 696.5,1044.5C 696.5,1156.17 696.5,1267.83 696.5,1379.5C 601.488,1379.96 506.488,1379.46 411.5,1378C 321.223,1367.94 245.056,1330.11 183,1264.5C 136.206,1211.84 110.206,1150.17 105,1079.5C 104.5,776.5 104.333,473.5 104.5,170.5C 215.833,170.5 327.167,170.5 438.5,170.5C 438.018,429.176 438.518,687.843 440,946.5C 442.983,981.323 458.483,1008.82 486.5,1029C 498.657,1036 511.657,1040.5 525.5,1042.5 Z"/></g>
<g><path style="opacity:1" fill="#853339" d="M 525.5,1042.5 C 582.64,1043.15 639.64,1043.82 696.5,1044.5C 622.499,1044.67 548.499,1044.5 474.5,1044C 491.672,1043.83 508.672,1043.33 525.5,1042.5 Z"/></g>
<g><path style="opacity:1" fill="#545454" d="M 914.5,1137.5 C 891.339,1136.5 868.006,1136.17 844.5,1136.5C 844.5,1218.17 844.5,1299.83 844.5,1381.5C 811.5,1381.5 778.5,1381.5 745.5,1381.5C 745.5,1268.83 745.5,1156.17 745.5,1043.5C 802.501,1043.33 859.501,1043.5 916.5,1044C 956.953,1050.35 992.62,1066.69 1023.5,1093C 1056.62,1125.94 1072.96,1165.94 1072.5,1213C 1069.91,1287.22 1034.58,1338.89 966.5,1368C 934.932,1380.2 902.265,1384.7 868.5,1381.5C 868.5,1350.17 868.5,1318.83 868.5,1287.5C 883.837,1287.67 899.17,1287.5 914.5,1287C 962.009,1277.81 984.509,1248.98 982,1200.5C 973.837,1164.17 951.337,1143.17 914.5,1137.5 Z"/></g>
<g><path style="opacity:1" fill="#545454" d="M 1198.5,1286.5 C 1228,1287.5 1257.66,1287.83 1287.5,1287.5C 1287.5,1318.83 1287.5,1350.17 1287.5,1381.5C 1245.17,1381.67 1202.83,1381.5 1160.5,1381C 1130.87,1375.04 1110.7,1357.87 1100,1329.5C 1095.91,1318.16 1093.25,1306.49 1092,1294.5C 1091.33,1238.17 1091.33,1181.83 1092,1125.5C 1094.82,1100.69 1104.99,1079.52 1122.5,1062C 1134.08,1052.21 1147.42,1046.21 1162.5,1044C 1204.5,1043.5 1246.5,1043.33 1288.5,1043.5C 1288.5,1074.5 1288.5,1105.5 1288.5,1136.5C 1258.16,1136.33 1227.83,1136.5 1197.5,1137C 1185.51,1141.16 1181.01,1149.32 1184,1161.5C 1186.26,1166.76 1190.09,1170.26 1195.5,1172C 1221.16,1172.5 1246.83,1172.67 1272.5,1172.5C 1272.5,1198.5 1272.5,1224.5 1272.5,1250.5C 1246.77,1250.03 1221.1,1250.53 1195.5,1252C 1181.79,1258.61 1178.96,1268.44 1187,1281.5C 1190.1,1284.81 1193.93,1286.48 1198.5,1286.5 Z"/></g>
<g><path style="opacity:1" fill="#545454" d="M 1299.5,1043.5 C 1337.17,1043.17 1374.84,1043.5 1412.5,1044.5C 1425.67,1075.5 1438.83,1106.5 1452,1137.5C 1465.31,1106.38 1478.48,1075.21 1491.5,1044C 1529.5,1043.33 1567.5,1043.33 1605.5,1044C 1554.2,1156.09 1503.04,1268.26 1452,1380.5C 1400.62,1268.4 1349.78,1156.07 1299.5,1043.5 Z"/></g>
<g><path style="opacity:1" fill="#c5c5c5" d="M 914.5,1137.5 C 891.5,1137.5 868.5,1137.5 845.5,1137.5C 845.833,1219 845.499,1300.34 844.5,1381.5C 844.5,1299.83 844.5,1218.17 844.5,1136.5C 868.006,1136.17 891.339,1136.5 914.5,1137.5 Z"/></g>
<g><path style="opacity:1" fill="#8e8e8e" d="M 1198.5,1286.5 C 1228.5,1286.5 1258.5,1286.5 1288.5,1286.5C 1288.83,1318.34 1288.5,1350 1287.5,1381.5C 1287.5,1350.17 1287.5,1318.83 1287.5,1287.5C 1257.66,1287.83 1228,1287.5 1198.5,1286.5 Z"/></g>
</svg>
